# AST/ASF file generated using VICON BodyLanguage
# -----------------------------------------------
:version 1.10
:name VICON
:units
  mass 1.0
  length 0.45
  angle deg
:documentation
   .ast/.asf automatically generated from VICON data using
   VICON BodyBuilder and BodyLanguage model FoxedUp or BRILLIANT.MOD
:root
   order TX TY TZ RX RY RZ
   axis XYZ
   position 0 0 0  
   orientation 0 0 0 
:bonedata
  begin
     id 1 
     name lhipjoint
     direction 0.646657 -0.683706 0.338203 
     length 2.4948 
     axis 0 0 0  XYZ
  end
  begin
     id 2 
     name lfemur
     direction 0.34202 -0.939693 0  
     length 6.79491  
     axis 0 0 20  XYZ
    dof rx ry rz
    limits (-160.0 20.0)
           (-70.0 70.0)
           (-60.0 70.0)
  end
  begin
     id 3 
     name ltibia
     direction 0.34202 -0.939693 0   
     length 7.56807   
     axis 0 0 20   XYZ
    dof rx
    limits (-10.0 170.0)
  end
  begin
     id 4 
     name lfoot
     direction 0.0679796 -0.186772 0.980048   
     length 2.53018   
     axis -90 7.62852e-016 20   XYZ
    dof rx rz
    limits (-45.0 90.0)
           (-70.0 20.0)
  end
  begin
     id 5 
     name ltoes
     direction 1.53625e-011 -4.21881e-011 1   
     length 1.26912   
     axis -90 7.62852e-016 20   XYZ
    dof rx
    limits (-90.0 20.0)
  end
  begin
     id 6 
     name rhipjoint
     direction -0.618868 -0.704065 0.348274   
     length 2.42265  
     axis 0 0 0  XYZ 
  end
  begin
     id 7 
     name rfemur
     direction -0.34202 -0.939693 0   
     length 6.73814   
     axis 0 0 -20   XYZ
    dof rx ry rz
    limits (-160.0 20.0)
           (-70.0 70.0)
           (-70.0 60.0)
  end
  begin
     id 8 
     name rtibia
     direction -0.34202 -0.939693 0   
     length 7.66799   
     axis 0 0 -20   XYZ
    dof rx
    limits (-10.0 170.0)
 end
 begin
     id 9 
     name rfoot
     direction -0.0727352 -0.199838 0.977125   
     length 2.57224  
     axis -90 -7.62852e-016 -20   XYZ
    dof rx rz
    limits (-45.0 90.0)
           (-20.0 70.0)
  end
  begin
     id 10 
     name rtoes
     direction -1.53501e-011 -4.21858e-011 1   
     length 1.28858   
     axis -90 -7.62852e-016 -20   XYZ
    dof rx
    limits (-90.0 20.0)
  end
  begin
     id 11 
     name lowerback
     direction -0.0172471 0.995767 -0.0902851   
     length 2.20206   
     axis 0 0 0   XYZ
    dof rx ry rz
    limits (-20.0 45.0)
           (-30.0 30.0)
           (-30.0 30.0)
  end
  begin
     id 12 
     name upperback
     direction -0.000110737 0.999714 0.0239043   
     length 2.19523   
     axis 0 0 0   XYZ
    dof rx ry rz
    limits (-20.0 45.0)
           (-30.0 30.0)
           (-30.0 30.0)
  end
  begin
     id 13 
     name thorax
     direction 0.00704869 0.997783 0.0661741   
     length 2.21977   
     axis 0 0 0   XYZ
    dof rx ry rz
    limits (-20.0 45.0)
           (-30.0 30.0)
           (-30.0 30.0)
  end
  begin
     id 14 
     name lowerneck
     direction -0.00407501 0.995527 0.0943846   
     length 1.83142   
     axis 0 0 0   XYZ
    dof rx ry rz
    limits (-20.0 45.0)
           (-30.0 30.0)
           (-30.0 30.0)
  end
  begin
     id 15 
     name upperneck
     direction 0.0640586 0.986486 -0.150807   
     length 1.84616   
     axis 0 0 0   XYZ
    dof rx ry rz
    limits (-20.0 45.0)
           (-30.0 30.0)
           (-30.0 30.0)
  end
  begin
     id 16
     name head
     direction 0.0188017 0.99791 -0.0618239  
     length 1.85932  
     axis 0 0 0   XYZ
    dof rx ry rz
    limits (-20.0 45.0)
           (-30.0 30.0)
           (-30.0 30.0)
  end
  begin
     id 17 
     name lclavicle
     direction 0.976074 0.206905 0.066852  
     length 3.81043  
     axis 0 0 0   XYZ
    dof ry rz
    limits (-20.0 10.0)
           (0.0 20.0)
  end
  begin
     id 18 
     name lhumerus
     direction 1 -4.48971e-011 1.86916e-027   
     length 5.37587   
     axis 180 -30 -90   XYZ
    dof rx ry rz
    limits (-60.0 90.0)
           (-90.0 90.0)
           (-90.0 90.0)
  end
  begin
     id 19
     name lradius
     direction 1 -4.48968e-011 1.69187e-027   
     length 3.35977   
     axis 180 -30 -90   XYZ
    dof rx
    limits (-10.0 170.0)
  end
  begin
     id 20
     name lwrist
     direction 1 -4.48968e-011 5.8978e-027   
     length 1.67988   
     axis -3.27506e-015 90 90   XYZ
    dof ry
    limits (-180.0 0.0)
 end
  begin
     id 21 
     name lhand
     direction 1 -4.49028e-011 1.18071e-026   
     length 0.561859   
     axis -7.52654e-015 90 90   XYZ
    dof rx rz
    limits (-90.0 90.0)
           (-45.0 45.0)
  end
  begin
     id 22 
     name lfingers
     direction 1 -4.48927e-011 2.35758e-026   
     length 0.452985   
     axis -1.50534e-014 90 90   XYZ
    dof rx
    limits (0.0 90.0)
  end
  begin
     id 23
     name lthumb
     direction 0.707107 -6.34898e-011 0.707107   
     length 0.650399   
     axis -90 45 5.69224e-014   XYZ
    dof rx rz
    limits (-45.0 45.0)
           (-45.0 45.0)
  end
  begin
     id 24 
     name rclavicle
     direction -0.988403 0.151789 0.00439714   
     length 3.6942  
     axis 0 0 0   XYZ 
    dof ry rz
    limits (-10.0 20.0)
           (-20.0 0.0)
  end
  begin
     id 25 
     name rhumerus
     direction -1 -4.48978e-011 1.62495e-027  
     length 5.22819   
     axis 180 30 90   XYZ
    dof rx ry rz
    limits (-90.0 60.0)
           (-90.0 90.0)
           (-90.0 90.0)
  end
  begin
     id 26 
     name rradius
     direction -1 -4.48961e-011 3.47796e-027   
     length 3.40764   
     axis 180 30 90   XYZ
    dof rx
    limits (-10.0 170.0)
  end
  begin
     id 27 
     name rwrist
     direction -1 -4.48949e-011 5.89602e-027   
     length 1.70382   
     axis -3.27506e-015 -90 -90   XYZ
    dof ry
    limits (-180.0 0.0)
  end
  begin
     id 28
     name rhand
     direction -1 -4.48977e-011 1.17973e-026   
     length 0.583255   
     axis -7.52654e-015 -90 -90   XYZ
    dof rx rz
    limits (-90.0 90.0)
           (-45.0 45.0)
  end
  begin
     id 29
     name rfingers
     direction -1 -4.49099e-011 2.36408e-026   
     length 0.470235   
     axis -1.50534e-014 -90 -90   XYZ
    dof rx
    limits (0.0 90.0)
  end
  begin
     id 30
     name rthumb
     direction -0.707107 -6.35011e-011 0.707107   
     length 0.675167   
     axis -90 -45 -5.69224e-014   XYZ
    dof rx rz
    limits (-45.0 45.0)
           (-45.0 45.0)
  end
:hierarchy
  begin
    root lhipjoint rhipjoint lowerback
    lhipjoint lfemur
    lfemur ltibia
    ltibia lfoot
    lfoot ltoes
    rhipjoint rfemur
    rfemur rtibia
    rtibia rfoot
    rfoot rtoes
    lowerback upperback
    upperback thorax
    thorax lowerneck lclavicle rclavicle
    lowerneck upperneck
    upperneck head
    lclavicle lhumerus
    lhumerus lradius
    lradius lwrist
    lwrist lhand lthumb
    lhand lfingers
    rclavicle rhumerus
    rhumerus rradius
    rradius rwrist
    rwrist rhand rthumb
    rhand rfingers
  end

#!OML:ASF G:\JayActor3\Patient Classification 1\Patient 1\Session 2\male.ASF
:FULLY-SPECIFIED
:DEGREES
618
root -39.0695 16.2612 -1.47029 -561.528 84.9575 154.503
lowerback 1.46476 -1.45157 -6.32757
upperback 5.64122 -1.66784 -0.602224
thorax 5.22123 -1.04466 2.86371
lowerneck -9.20899 -0.445894 0.664614
upperneck 12.9027 -1.18816 4.16747
head 5.42798 -0.212735 1.11091
rclavicle 3.35946e-014 -6.75868e-015
rhumerus -47.2232 20.4444 -92.0404
rradius 38.6797
rwrist -10.9559
rhand -14.0159 -0.335993
rfingers 7.12502
rthumb 12.1138 -29.9653
lclavicle 3.35946e-014 -6.75868e-015
lhumerus -19.5104 -47.0487 86.6735
lradius 95.3677
lwrist 29.7313
lhand -21.8445 18.9011
lfingers 7.12502
lthumb 4.5589 48.832
rfemur -22.1197 -1.04724 18.2912
rtibia 58.0868
rfoot -28.6569 -1.14855
rtoes -0.402743
lfemur -11.8452 9.37769 -24.3151
ltibia 33.0495
lfoot -26.6952 1.5317
ltoes -15.5212
619
root -39.051 16.2553 -1.46721 -561.433 84.6107 154.474
lowerback 1.53295 -1.49287 -6.39128
upperback 5.65573 -1.72481 -0.595145
thorax 5.20676 -1.0752 2.90598
lowerneck -9.05105 -0.438948 0.614651
upperneck 12.4352 -1.16152 4.20335
head 5.2555 -0.212782 1.13018
rclavicle 1.88845e-015 1.63003e-014
rhumerus -48.5022 21.3468 -92.2644
rradius 39.5083
rwrist -11.6318
rhand -13.6429 -0.516022
rfingers 7.12502
rthumb 12.4734 -30.1238
lclavicle 1.88845e-015 1.63003e-014
lhumerus -18.4508 -47.6419 85.4816
lradius 97.2882
lwrist 29.8746
lhand -21.5288 18.4392
lfingers 7.12502
lthumb 4.86377 48.3634
rfemur -22.2964 -1.5357 18.2788
rtibia 58.8836
rfoot -28.0164 -0.931834
rtoes -0.015421
lfemur -11.954 9.26063 -24.4517
ltibia 33.1023
lfoot -26.8146 1.63179
ltoes -16.4334
620
root -39.031 16.2499 -1.46438 -561.124 84.2565 154.653
lowerback 1.59523 -1.52801 -6.42493
upperback 5.66504 -1.77486 -0.575425
thorax 5.18858 -1.10126 2.94494
lowerneck -8.89555 -0.444132 0.556286
upperneck 11.9827 -1.14885 4.22782
head 5.08882 -0.220257 1.14634
rclavicle -2.80286e-014 -1.23246e-014
rhumerus -49.8122 22.2171 -92.4815
rradius 40.4012
rwrist -12.3373
rhand -13.2996 -0.672644
rfingers 7.12502
rthumb 12.8043 -30.26
lclavicle -2.80286e-014 -1.23246e-014
lhumerus -17.4221 -48.1332 84.3205
lradius 98.9978
lwrist 30.0177
lhand -21.1279 18.0173
lfingers 7.12502
lthumb 5.25086 47.9323
rfemur -22.4184 -2.0534 18.2876
rtibia 59.61
rfoot -27.2563 -0.795258
rtoes 0.602986
lfemur -12.0702 9.08154 -24.5788
ltibia 33.1687
lfoot -26.9099 1.79516
ltoes -17.3009
621
root -39.0096 16.2449 -1.46181 -560.671 83.8971 154.974
lowerback 1.65657 -1.55617 -6.43128
upperback 5.66987 -1.81706 -0.543002
thorax 5.16462 -1.12244 2.98233
lowerneck -8.74441 -0.461631 0.488353
upperneck 11.5468 -1.15045 4.23968
head 4.92873 -0.235336 1.15929
rclavicle 4.90998e-014 9.14409e-015
rhumerus -51.1431 23.0542 -92.6906
rradius 41.3454
rwrist -13.0359
rhand -12.9961 -0.793949
rfingers 7.12502
rthumb 13.097 -30.3627
lclavicle 4.90998e-014 9.14409e-015
lhumerus -16.4553 -48.5274 83.2194
lradius 100.487
lwrist 30.1715
lhand -20.6632 17.6231
lfingers 7.12502
lthumb 5.69953 47.5264
rfemur -22.4783 -2.589 18.3129
rtibia 60.2493
rfoot -26.424 -0.73541
rtoes 1.3637
lfemur -12.1916 8.8413 -24.6979
ltibia 33.2536
lfoot -26.9777 2.01604
ltoes -18.1076
622
root -38.9871 16.2399 -1.45945 -560.128 83.5327 155.388
lowerback 1.72181 -1.57781 -6.41481
upperback 5.67013 -1.85225 -0.497448
thorax 5.13229 -1.13927 3.02119
lowerneck -8.60105 -0.489906 0.411216
upperneck 11.1314 -1.16444 4.23652
head 4.77691 -0.257071 1.16846
rclavicle -4.17448e-015 8.15017e-015
rhumerus -52.482 23.8587 -92.8907
rradius 42.3213
rwrist -13.6898
rhand -12.744 -0.865874
rfingers 7.12502
rthumb 13.3399 -30.4189
lclavicle -4.17448e-015 8.15017e-015
lhumerus -15.5839 -48.8328 82.2077
lradius 101.752
lwrist 30.3413
lhand -20.1706 17.2521
lfingers 7.12502
lthumb 6.17516 47.1421
rfemur -22.4709 -3.12879 18.3504
rtibia 60.7843
rfoot -25.5975 -0.742525
rtoes 2.15049
lfemur -12.3193 8.54311 -24.8105
ltibia 33.3653
lfoot -27.0151 2.28564
ltoes -18.8471
623
root -38.9635 16.2349 -1.45714 -559.525 83.1624 155.867
lowerback 1.79589 -1.59497 -6.37973
upperback 5.66552 -1.88335 -0.438333
thorax 5.08895 -1.15332 3.06434
lowerneck -8.47105 -0.524858 0.329194
upperneck 10.7418 -1.18577 4.21288
head 4.63568 -0.282921 1.17186
rclavicle 2.73329e-014 2.14687e-014
rhumerus -53.8108 24.6324 -93.0816
rradius 43.3021
rwrist -14.2689
rhand -12.5398 -0.887365
rfingers 7.12502
rthumb 13.5367 -30.4274
lclavicle 2.73329e-014 2.14687e-014
lhumerus -14.8406 -49.0586 81.311
lradius 102.793
lwrist 30.5239
lhand -19.6891 16.9097
lfingers 7.12502
lthumb 6.63996 46.7856
rfemur -22.3928 -3.65868 18.3976
rtibia 61.1965
rfoot -24.8739 -0.800402
rtoes 2.83644
lfemur -12.4579 8.19337 -24.9164
ltibia 33.5161
lfoot -27.0201 2.59271
ltoes -19.5239
624
root -38.9389 16.2294 -1.45464 -558.882 82.7847 156.394
lowerback 1.88382 -1.6105 -6.33012
upperback 5.65686 -1.91423 -0.366088
thorax 5.03325 -1.16664 3.1136
lowerneck -8.35807 -0.561023 0.249342
upperneck 10.3793 -1.20774 4.16353
head 4.50579 -0.309508 1.16719
rclavicle 1.21259e-014 -2.26615e-014
rhumerus -55.1041 25.3773 -93.2626
rradius 44.2543
rwrist -14.7565
rhand -12.3661 -0.868724
rfingers 7.12502
rthumb 13.7042 -30.3975
lclavicle 1.21259e-014 -2.26615e-014
lhumerus -14.2512 -49.2145 80.5478
lradius 103.615
lwrist 30.7094
lhand -19.2506 16.6107
lfingers 7.12502
lthumb 7.0633 46.4729
rfemur -22.2416 -4.16608 18.454
rtibia 61.4681
rfoot -24.3495 -0.888283
rtoes 3.31842
lfemur -12.6147 7.80284 -25.0141
ltibia 33.7235
lfoot -26.991 2.9254
ltoes -20.1553
625
root -38.9135 16.2234 -1.45174 -558.206 82.3991 156.961
lowerback 1.98419 -1.62704 -6.266
upperback 5.64546 -1.94793 -0.283315
thorax 4.96762 -1.18071 3.16611
lowerneck -8.2595 -0.593464 0.180779
upperneck 10.0375 -1.22455 4.08665
head 4.38458 -0.33383 1.15276
rclavicle -6.11263e-015 -8.54774e-015
rhumerus -56.331 26.091 -93.4332
rradius 45.142
rwrist -15.1525
rhand -12.1842 -0.837382
rfingers 7.12502
rthumb 13.8795 -30.3542
lclavicle -6.11263e-015 -8.54774e-015
lhumerus -13.8327 -49.3099 79.9269
lradius 104.224
lwrist 30.8836
lhand -18.8711 16.3715
lfingers 7.12502
lthumb 7.42955 46.221
rfemur -22.021 -4.64222 18.5208
rtibia 61.5842
rfoot -24.0966 -0.984266
rtoes 3.53666
lfemur -12.8043 7.38155 -25.1013
ltibia 34.0102
lfoot -26.9254 3.27081
ltoes -20.746
626
root -38.887 16.2166 -1.44831 -557.503 82.0117 157.566
lowerback 2.09425 -1.64508 -6.18388
upperback 5.63564 -1.98428 -0.193871
thorax 4.8979 -1.19538 3.21576
lowerneck -8.22234 -0.622236 0.0928284
upperneck 9.38582 -1.21786 3.91232
head 4.6407 -0.365055 1.23896
rclavicle 3.47376e-014 -2.28602e-015
rhumerus -57.455 26.7707 -93.5917
rradius 45.9296
rwrist -15.473
rhand -11.9495 -0.823645
rfingers 7.12502
rthumb 14.1057 -30.3249
lclavicle 3.47376e-014 -2.28602e-015
lhumerus -13.5887 -49.3512 79.4473
lradius 104.622
lwrist 31.0325
lhand -18.5507 16.203
lfingers 7.12502
lthumb 7.73882 46.0414
rfemur -21.7328 -5.0793 18.6019
rtibia 61.5362
rfoot -24.1416 -1.07092
rtoes 3.50114
lfemur -13.0408 6.94348 -25.1733
ltibia 34.4035
lfoot -26.8215 3.61335
ltoes -21.282
627
root -38.8596 16.2088 -1.44421 -556.758 81.6287 158.222
lowerback 2.20993 -1.66437 -6.07774
upperback 5.63094 -2.02214 -0.101821
thorax 4.82956 -1.20986 3.25481
lowerneck -8.13921 -0.642392 0.0641234
upperneck 9.06612 -1.22233 3.80372
head 4.5057 -0.381296 1.20284
rclavicle 2.80783e-015 -3.27995e-015
rhumerus -58.4401 27.41 -93.7348
rradius 46.587
rwrist -15.7459
rhand -11.6232 -0.852834
rfingers 7.12502
rthumb 14.4201 -30.3319
lclavicle 2.80783e-015 -3.27995e-015
lhumerus -13.5156 -49.3427 79.1043
lradius 104.809
lwrist 31.1452
lhand -18.2761 16.111
lfingers 7.12502
lthumb 8.00388 45.9395
rfemur -21.3828 -5.47531 18.704
rtibia 61.3249
rfoot -24.4656 -1.14092
rtoes 3.27981
lfemur -13.3446 6.50346 -25.2227
ltibia 34.9343
lfoot -26.6741 3.92841
ltoes -21.722
628
root -38.8312 16.1999 -1.43942 -555.952 81.2608 158.948
lowerback 2.32528 -1.68254 -5.93968
upperback 5.6339 -2.05757 -0.010658
thorax 4.76768 -1.22193 3.27511
lowerneck -8.0549 -0.660046 0.0563741
upperneck 8.72784 -1.2261 3.69685
head 4.36432 -0.396237 1.1638
rclavicle 1.47225e-014 1.63997e-015
rhumerus -59.2546 28.0029 -93.8587
rradius 47.0901
rwrist -15.9979
rhand -11.196 -0.92889
rfingers 7.12502
rthumb 14.8317 -30.3781
lclavicle 1.47225e-014 1.63997e-015
lhumerus -13.6056 -49.2868 78.893
lradius 104.783
lwrist 31.2155
lhand -18.032 16.0909
lfingers 7.12502
lthumb 8.2394 45.9102
rfemur -20.979 -5.82992 18.8349
rtibia 60.9612
rfoot -25.0136 -1.19594
rtoes 2.97411
lfemur -13.7384 6.07481 -25.2418
ltibia 35.6338
lfoot -26.477 4.19052
ltoes -22.0085
629
root -38.8021 16.1897 -1.43394 -555.051 80.9201 159.773
lowerback 2.43684 -1.69635 -5.76188
upperback 5.64506 -2.08596 0.0789123
thorax 4.71384 -1.22898 3.2715
lowerneck -7.96642 -0.679016 0.0666502
upperneck 8.3612 -1.2346 3.6036
head 4.21287 -0.412268 1.12602
rclavicle -1.89032e-014 -3.93221e-015
rhumerus -59.8732 28.545 -93.9575
rradius 47.4241
rwrist -16.2496
rhand -10.6964 -1.03222
rfingers 7.12502
rthumb 15.3129 -30.4453
lclavicle -1.89032e-014 -3.93221e-015
lhumerus -13.8528 -49.1804 78.8141
lradius 104.542
lwrist 31.2404
lhand -17.8038 16.1324
lfingers 7.12502
lthumb 8.45971 45.943
rfemur -20.5309 -6.14417 19.0044
rtibia 60.4647
rfoot -25.7134 -1.24649
rtoes 2.68014
lfemur -14.2447 5.67003 -25.2206
ltibia 36.5298
lfoot -26.2221 4.38165
ltoes -22.1038
630
root -38.7724 16.1781 -1.42774 -554.023 80.6165 160.728
lowerback 2.54404 -1.70259 -5.54092
upperback 5.663 -2.1031 0.169105
thorax 4.66634 -1.2288 3.24444
lowerneck -7.87569 -0.70139 0.0945243
upperneck 7.96278 -1.25062 3.52782
head 4.05081 -0.430708 1.09072
rclavicle -1.85118e-014 2.14439e-014
rhumerus -60.2778 29.0341 -94.023
rradius 47.5821
rwrist -16.5076
rhand -10.1931 -1.12467
rfingers 7.12502
rthumb 15.7977 -30.5001
lclavicle -1.85118e-014 2.14439e-014
lhumerus -14.2563 -49.0172 78.8751
lradius 104.083
lwrist 31.2218
lhand -17.5857 16.2221
lfingers 7.12502
lthumb 8.67019 46.024
rfemur -20.0466 -6.41989 19.2212
rtibia 59.8598
rfoot -26.5004 -1.30311
rtoes 2.45856
lfemur -14.8818 5.30081 -25.1499
ltibia 37.6443
lfoot -25.9018 4.495
ltoes -22.0167
631
root -38.7423 16.165 -1.42077 -552.833 80.3562 161.844
lowerback 2.64981 -1.69856 -5.27771
upperback 5.68537 -2.10584 0.26479
thorax 4.62106 -1.21986 3.19962
lowerneck -7.78915 -0.72751 0.141379
upperneck 7.53559 -1.27424 3.46521
head 3.88062 -0.451796 1.05624
rclavicle -1.88845e-014 1.84373e-014
rhumerus -60.4562 29.4689 -94.0452
rradius 47.5647
rwrist -16.7658
rhand -9.75904 -1.17459
rfingers 7.12502
rthumb 16.2157 -30.5164
lclavicle -1.88845e-014 1.84373e-014
lhumerus -14.8167 -48.7876 79.0874
lradius 103.407
lwrist 31.1642
lhand -17.3793 16.3492
lfingers 7.12502
lthumb 8.86934 46.1428
rfemur -19.5321 -6.65883 19.4926
rtibia 59.1694
rfoot -27.3275 -1.3736
rtoes 2.32471
lfemur -15.6612 4.9776 -25.021
ltibia 38.9911
lfoot -25.5113 4.53171
ltoes -21.8004
